PathFileType	4	(X/Y/Z)	Kaydara																																																																																																																									
DataRate	CameraRate	NumFrames	NumMarkers	Units	OrigDataRate	OrigDataStartFrame	OrigNumFrames																																																																																																																					
30	30	5	41	mm	30	16	300																																																																																																																					
Frame#	Time	PAIB_LFHD			PAIB_RFHD			PAIB_LBHD			PAIB_RBHD			PAIB_LFTShould			PAIB_RFTShould			PAIB_LRRShould			PAIB_RRRShould			PAIB_T10			PAIB_STRN			PAIB_TRUN			PAIB_LSHO			PAIB_LUPA			PAIB_LELB			PAIB_LFRM			PAIB_LWRA			PAIB_LWRB			PAIB_LFIN			PAIB_RSHO			PAIB_RUPA			PAIB_RELB			PAIB_RFRM			PAIB_RWRA			PAIB_RWRB			PAIB_RFIN			PAIB_LFWT			PAIB_RFWT			PAIB_LBWT			PAIB_RBWT			PAIB_LTHI			PAIB_LKNE			PAIB_LSHN			PAIB_LANK			PAIB_LHEE			PAIB_LTOE			PAIB_RTHI			PAIB_RKNE			PAIB_RSHN			PAIB_RANK			PAIB_RHEE			PAIB_RTOE		
		X1	Y1	Z1	X2	Y2	Z2	X3	Y3	Z3	X4	Y4	Z4	X5	Y5	Z5	X6	Y6	Z6	X7	Y7	Z7	X8	Y8	Z8	X9	Y9	Z9	X10	Y10	Z10	X11	Y11	Z11	X12	Y12	Z12	X13	Y13	Z13	X14	Y14	Z14	X15	Y15	Z15	X16	Y16	Z16	X17	Y17	Z17	X18	Y18	Z18	X19	Y19	Z19	X20	Y20	Z20	X21	Y21	Z21	X22	Y22	Z22	X23	Y23	Z23	X24	Y24	Z24	X25	Y25	Z25	X26	Y26	Z26	X27	Y27	Z27	X28	Y28	Z28	X29	Y29	Z29	X30	Y30	Z30	X31	Y31	Z31	X32	Y32	Z32	X33	Y33	Z33	X34	Y34	Z34	X35	Y35	Z35	X36	Y36	Z36	X37	Y37	Z37	X38	Y38	Z38	X39	Y39	Z39	X40	Y40	Z40	X41	Y41	Z41
																																																																																																																												
1	0.5	248.43115	1647.06009	-1898.74054	65.1299	1653.29803	-1910.45074	265.67835	1669.28635	-2026.63879	62.39597	1682.966	-2022.9361	220.90288	1420.00244	-1988.55423	99.88871	1417.33887	-1989.35822	230.3425	1494.86954	-2127.03415	76.33682	1493.21503	-2114.64264	148.48353	1342.83005	-2214.45557	169.10534	1352.25098	-1956.50879	167.40255	1249.61716	-1940.62134	349.35326	1435.62592	-2062.54715	394.94846	1205.84396	-2052.53983	412.74403	1118.03566	-2087.10358	422.84145	1006.70853	-2034.9202	352.22324	902.14912	-1948.1279	396.93264	877.1888	-2007.18872	401.86184	846.45897	-1941.7601	-27.88488	1424.0596	-2033.63495	-89.4858	1248.01529	-2061.72318	-106.11317	1127.985	-2064.84406	-106.50016	992.70332	-2023.77747	-20.24468	898.68385	-1938.0191	-95.68886	878.20824	-1968.64349	-70.74097	847.95624	-1904.23767	267.93118	977.53975	-1970.98434	31.06216	980.4248	-1966.19598	202.70189	1027.06924	-2185.44022	57.98497	1030.66856	-2179.4519	250.05072	747.30659	-2177.09915	296.38016	502.4929	-2082.00516	272.76052	314.13754	-2073.69095	273.5051	128.41293	-2159.00925	217.78637	117.86143	-2204.78607	260.03479	75.18759	-1983.06168	1.0028	730.53886	-2169.16412	-7.594	489.70955	-2086.79321	47.54489	305.61914	-2070.25146	19.07053	104.2993	-2155.7048	83.4097	110.74627	-2201.9516	28.02872	77.3688	-1978.52264
2	0.533	248.281	1647.08923	-1898.22769	65.0679	1653.42941	-1910.15335	265.71934	1669.23676	-2026.18301	62.44705	1682.96997	-2022.63245	222.3945	1420.57159	-1989.63852	99.9098	1417.00165	-1990.17944	230.33165	1494.79874	-2126.59897	76.35923	1493.20206	-2114.17786	148.52028	1342.7684	-2214.039	169.10906	1352.20169	-1956.11282	167.33826	1249.60312	-1940.14969	349.32259	1435.52429	-2062.11502	394.83337	1205.76263	-2051.83929	412.54253	1117.83112	-2086.26755	422.42023	1006.56448	-2033.88031	351.5522	902.25449	-1947.01218	396.28269	877.16019	-2005.9259	401.15578	846.56609	-1940.54199	-27.83092	1424.04465	-2033.13156	-89.44586	1248.00758	-2061.1351	-106.46801	1128.28362	-2064.74518	-106.3626	992.71416	-2023.04306	-19.91451	898.77136	-1937.34741	-95.46297	878.21777	-1967.80228	-70.42178	848.01941	-1903.44009	267.93587	977.43126	-1970.46631	31.09019	980.41275	-1965.72891	202.72062	1027.12616	-2184.97269	58.00958	1030.70793	-2179.02328	250.09258	747.37938	-2176.80008	296.36345	502.48322	-2081.98792	272.74164	314.12611	-2073.64487	273.52324	128.46922	-2158.91098	217.79284	117.87351	-2204.79355	260.05205	75.18067	-1983.09402	0.94666	730.50568	-2168.83423	-7.62846	489.64478	-2086.65558	47.56964	305.62719	-2070.1387	19.02774	104.36997	-2155.75027	83.40287	110.76914	-2201.91147	27.99586	77.3371	-1978.52325
3	0.567	248.23755	1647.13776	-1897.76749	65.06958	1653.44772	-1909.70108	265.67413	1669.21997	-2025.70892	62.43979	1682.92603	-2022.20764	222.46595	1420.58395	-1989.41589	99.966	1417.30484	-1988.23944	230.3355	1494.76318	-2126.14487	76.39167	1493.20908	-2113.67462	148.51274	1342.73575	-2213.55545	169.10877	1352.12692	-1955.63141	167.41484	1249.5665	-1939.6611	349.27895	1435.51682	-2061.60339	394.57279	1205.65208	-2051.0968	412.29069	1117.75093	-2085.41901	421.91967	1006.4856	-2032.90878	350.69614	902.34192	-1945.98419	395.5698	877.16629	-2004.84131	400.22041	846.62033	-1939.42902	-27.77177	1424.03809	-2032.60681	-89.37824	1248.04718	-2060.50125	-106.34409	1128.1617	-2063.97537	-106.28048	992.70035	-2022.34451	-19.73368	898.88054	-1936.58783	-95.31836	878.2209	-1967.13669	-70.26586	848.05397	-1902.73697	267.87512	977.32483	-1970.10803	31.0128	980.27435	-1965.35538	202.7013	1027.20222	-2184.47052	57.99132	1030.79758	-2178.56613	250.18032	747.46513	-2176.66702	296.35546	502.49165	-2081.87546	272.72875	314.11589	-2073.6412	273.54441	128.43472	-2158.99384	217.79396	117.86777	-2204.8143	260.05213	75.18909	-1983.09845	0.64261	730.74837	-2168.9653	-7.63352	489.62437	-2086.55533	47.49685	305.59526	-2070.16235	18.97685	104.37376	-2155.82199	83.41123	110.78438	-2201.91818	27.98341	77.33556	-1978.52158
4	0.6	248.31968	1647.12585	-1897.28806	65.10612	1653.40302	-1909.13437	265.6485	1669.18335	-2025.23987	62.38929	1682.87064	-2021.64688	222.50603	1420.57281	-1988.86627	100.02794	1417.2963	-1987.82761	230.30373	1494.758	-2125.61127	76.39083	1493.2077	-2113.14407	148.52232	1342.72476	-2213.06473	169.12531	1352.09549	-1955.16708	167.38588	1249.47632	-1939.16107	349.2643	1435.49591	-2061.03195	394.29504	1205.59975	-2050.30594	411.99593	1117.66029	-2084.6196	421.37653	1006.41556	-2031.97876	349.71916	902.33971	-1945.30289	394.74251	877.16995	-2003.86581	399.151	846.65947	-1938.3873	-27.70755	1424.02145	-2032.02866	-89.32755	1248.03085	-2059.8056	-106.29702	1128.21434	-2063.27148	-106.25024	992.6944	-2021.69006	-19.79303	898.66417	-1936.08795	-95.30301	878.17055	-1966.40182	-70.16989	848.01422	-1902.15164	267.79306	977.07047	-1969.85992	30.96295	980.07095	-1964.86237	202.64923	1027.2963	-2183.9859	57.93729	1030.86227	-2178.04276	250.09394	747.56699	-2176.58127	296.35019	502.4752	-2081.95801	272.75238	314.1293	-2073.6795	273.57746	128.47191	-2158.98026	217.77668	117.85446	-2204.84131	260.05472	75.21569	-1983.09891	0.98034	730.68268	-2168.50372	-7.54964	489.562	-2086.43433	47.47365	305.53549	-2070.09644	19.04853	104.2985	-2155.77194	83.44704	110.79097	-2201.91132	28.00205	77.34648	-1978.52264
5	0.633	248.23982	1647.11563	-1896.63834	64.91955	1653.39783	-1908.49121	265.54495	1669.19525	-2024.68277	62.30921	1682.76733	-2020.93628	222.5201	1420.52826	-1988.29376	100.05137	1417.14676	-1987.2522	230.35286	1494.70215	-2124.88174	76.39682	1493.15918	-2112.53723	148.56167	1342.71683	-2212.46277	169.19025	1352.03644	-1954.58084	167.49294	1249.42245	-1938.59863	349.2548	1435.50522	-2060.47043	394.08649	1205.55794	-2049.61594	411.75026	1117.58583	-2083.82614	420.78728	1006.35902	-2031.10901	348.78658	902.44926	-1944.48792	393.94527	877.16194	-2002.99789	398.12664	846.69678	-1937.5473	-27.67954	1423.92517	-2031.43219	-89.27388	1247.94647	-2059.13544	-106.35764	1128.17795	-2062.72003	-106.26168	992.63405	-2021.02509	-19.74393	898.58368	-1935.51147	-95.28857	878.1179	-1965.77942	-70.16036	847.96295	-1901.43692	267.97667	977.10106	-1969.40201	31.04527	980.01045	-1964.34784	202.62695	1027.33131	-2183.60153	57.8893	1030.88242	-2177.54471	250.04749	747.60452	-2176.33041	296.36692	502.43797	-2081.95679	272.73937	314.09872	-2073.73611	273.54334	128.55735	-2158.86993	217.73275	117.84795	-2204.80774	260.08471	75.20957	-1983.12027	1.04314	730.61539	-2168.04321	-7.41072	489.50691	-2086.19095	47.56468	305.5077	-2070.01068	19.11868	104.39758	-2155.74478	83.5102	110.81963	-2201.89362	28.01604	77.3602	-1978.49045
